# xmcd
#
# Track frame offsets:
#	150
#	15613
#	30715
#	43378
#	58370
#	73678
#	87475
#	103045
#	118595
#	146535
#	165988
#	181643
#
# Disc length: 2590 seconds
#
# Revision: 0
# Processed by: cddbd v1.5.2PL0 Copyright (c) Steve Scherf et al.
# Submitted via: EZCDAudioConverter 3.1.5.1
#
DISCID=a40a1c0c
DTITLE=Σωτηρία Μπέλλου - Μεγάλες Επιτυχίες_CD2
DYEAR=1994
DGENRE=Ρεμπέτικα
TTITLE0=	Συννεφιασμένη Κυριακή
TTITLE1=	Η Άμαξα Μές Τη Βροχή
TTITLE2=Τρεις Σταγόνες Δηλητήριο
TTITLE3=Παίξτε Μπουζούκια
TTITLE4=Μας Ζηλεύουνε
TTITLE5=Εγώ 'μαι Το Μπεγλέρι Σου
TTITLE6=	Το Δικό Σου Το Μαράζι
TTITLE7=	Πλατεία Βάθης
TTITLE8=Δε Λες Κουβέντα
TTITLE9=	Μην Κλαις
TTITLE10=	Ζεϊμπέκικο
TTITLE11=	Μεταξουργείο
EXTD=
EXTT0=
EXTT1=
EXTT2=
EXTT3=
EXTT4=
EXTT5=
EXTT6=
EXTT7=
EXTT8=
EXTT9=
EXTT10=
EXTT11=
PLAYORDER=
